<mxfile host="Electron" agent="Mozilla/5.0 (Macintosh; Intel Mac OS X 10_15_7) AppleWebKit/537.36 (KHTML, like Gecko) draw.io/24.7.17 Chrome/128.0.6613.36 Electron/32.0.1 Safari/537.36" version="24.7.17">
  <diagram name="Page-1" id="FNET87YD45KoqOdpK1eA">
    <mxGraphModel dx="4590" dy="4380" grid="1" gridSize="10" guides="1" tooltips="1" connect="1" arrows="1" fold="1" page="1" pageScale="1" pageWidth="850" pageHeight="1100" math="0" shadow="0">
      <root>
        <mxCell id="0" />
        <mxCell id="1" parent="0" />
        <mxCell id="zHDnDTDPrJPbukV9H9nl-15" value="" style="strokeWidth=1;shadow=0;dashed=0;align=center;html=1;shape=mxgraph.mockup.containers.browserWindow;rSize=0;strokeColor=#666666;strokeColor2=#008cff;strokeColor3=#c4c4c4;mainText=,;recursiveResize=0;" vertex="1" parent="1">
          <mxGeometry x="190" y="130" width="660" height="750" as="geometry" />
        </mxCell>
        <mxCell id="zHDnDTDPrJPbukV9H9nl-16" value="Login" style="strokeWidth=1;shadow=0;dashed=0;align=center;html=1;shape=mxgraph.mockup.containers.anchor;fontSize=17;fontColor=#666666;align=left;whiteSpace=wrap;" vertex="1" parent="zHDnDTDPrJPbukV9H9nl-15">
          <mxGeometry x="60" y="12" width="110" height="26" as="geometry" />
        </mxCell>
        <mxCell id="zHDnDTDPrJPbukV9H9nl-17" value="https://www.ProjectHub.com/Login" style="strokeWidth=1;shadow=0;dashed=0;align=center;html=1;shape=mxgraph.mockup.containers.anchor;rSize=0;fontSize=17;fontColor=#666666;align=left;" vertex="1" parent="zHDnDTDPrJPbukV9H9nl-15">
          <mxGeometry x="130" y="60" width="250" height="26" as="geometry" />
        </mxCell>
        <mxCell id="zHDnDTDPrJPbukV9H9nl-22" value="type here..." style="html=1;strokeWidth=2;shape=manualInput;whiteSpace=wrap;rounded=1;size=0;arcSize=30;" vertex="1" parent="zHDnDTDPrJPbukV9H9nl-15">
          <mxGeometry x="235" y="320" width="190" height="50" as="geometry" />
        </mxCell>
        <mxCell id="zHDnDTDPrJPbukV9H9nl-23" value="&lt;font style=&quot;font-size: 36px;&quot;&gt;ProjectHub&lt;/font&gt;" style="text;strokeColor=none;fillColor=none;html=1;fontSize=24;fontStyle=1;verticalAlign=middle;align=center;" vertex="1" parent="zHDnDTDPrJPbukV9H9nl-15">
          <mxGeometry x="250" y="150" width="190" height="50" as="geometry" />
        </mxCell>
        <mxCell id="zHDnDTDPrJPbukV9H9nl-24" value="type here..." style="html=1;strokeWidth=2;shape=manualInput;whiteSpace=wrap;rounded=1;size=0;arcSize=30;" vertex="1" parent="zHDnDTDPrJPbukV9H9nl-15">
          <mxGeometry x="235" y="410" width="190" height="50" as="geometry" />
        </mxCell>
        <mxCell id="zHDnDTDPrJPbukV9H9nl-25" value="Email/UserName" style="text;html=1;align=center;verticalAlign=middle;whiteSpace=wrap;rounded=0;" vertex="1" parent="zHDnDTDPrJPbukV9H9nl-15">
          <mxGeometry x="260" y="290" width="60" height="30" as="geometry" />
        </mxCell>
        <mxCell id="zHDnDTDPrJPbukV9H9nl-26" value="Password" style="text;html=1;align=center;verticalAlign=middle;whiteSpace=wrap;rounded=0;" vertex="1" parent="zHDnDTDPrJPbukV9H9nl-15">
          <mxGeometry x="235" y="380" width="60" height="30" as="geometry" />
        </mxCell>
        <mxCell id="zHDnDTDPrJPbukV9H9nl-11" value="Login" style="labelPosition=center;verticalLabelPosition=middle;align=center;html=1;shape=mxgraph.basic.button;dx=10;whiteSpace=wrap;" vertex="1" parent="zHDnDTDPrJPbukV9H9nl-15">
          <mxGeometry x="235" y="480" width="80" height="40" as="geometry" />
        </mxCell>
        <mxCell id="zHDnDTDPrJPbukV9H9nl-30" value="Forgotten Password?" style="rounded=1;html=1;shadow=0;dashed=0;whiteSpace=wrap;fontSize=10;fillColor=#666666;align=center;strokeColor=#4D4D4D;fontColor=#ffffff;" vertex="1" parent="zHDnDTDPrJPbukV9H9nl-15">
          <mxGeometry x="334.5" y="503.12" width="105.5" height="16.88" as="geometry" />
        </mxCell>
        <mxCell id="zHDnDTDPrJPbukV9H9nl-35" value="" style="strokeWidth=1;shadow=0;dashed=0;align=center;html=1;shape=mxgraph.mockup.containers.browserWindow;rSize=0;strokeColor=#666666;strokeColor2=#008cff;strokeColor3=#c4c4c4;mainText=,;recursiveResize=0;" vertex="1" parent="1">
          <mxGeometry x="870" y="120" width="680" height="730" as="geometry" />
        </mxCell>
        <mxCell id="zHDnDTDPrJPbukV9H9nl-36" value="Home" style="strokeWidth=1;shadow=0;dashed=0;align=center;html=1;shape=mxgraph.mockup.containers.anchor;fontSize=17;fontColor=#666666;align=left;whiteSpace=wrap;" vertex="1" parent="zHDnDTDPrJPbukV9H9nl-35">
          <mxGeometry x="60" y="12" width="110" height="26" as="geometry" />
        </mxCell>
        <mxCell id="zHDnDTDPrJPbukV9H9nl-37" value="https://www.ProjectHub.com/Home" style="strokeWidth=1;shadow=0;dashed=0;align=center;html=1;shape=mxgraph.mockup.containers.anchor;rSize=0;fontSize=17;fontColor=#666666;align=left;" vertex="1" parent="zHDnDTDPrJPbukV9H9nl-35">
          <mxGeometry x="130" y="60" width="250" height="26" as="geometry" />
        </mxCell>
        <mxCell id="zHDnDTDPrJPbukV9H9nl-38" value="" style="html=1;shadow=0;dashed=0;fillColor=#343A40;strokeColor=none;fontSize=16;fontColor=#ffffff;align=left;spacing=15;" vertex="1" parent="zHDnDTDPrJPbukV9H9nl-35">
          <mxGeometry y="100" width="670" height="40" as="geometry" />
        </mxCell>
        <mxCell id="zHDnDTDPrJPbukV9H9nl-39" value="" style="swimlane;shape=mxgraph.bootstrap.anchor;strokeColor=none;fillColor=none;fontColor=#0085FC;fontStyle=0;childLayout=stackLayout;horizontal=0;startSize=0;horizontalStack=1;resizeParent=1;resizeParentMax=0;resizeLast=0;collapsible=0;marginBottom=0;whiteSpace=wrap;html=1;resizeWidth=0;" vertex="1" parent="zHDnDTDPrJPbukV9H9nl-38">
          <mxGeometry y="6.666666666666666" width="270" height="20" as="geometry" />
        </mxCell>
        <mxCell id="zHDnDTDPrJPbukV9H9nl-40" value="Home(Student)" style="text;strokeColor=none;align=left;verticalAlign=middle;spacingLeft=15;spacingRight=10;points=[[0,0.5],[1,0.5]];portConstraint=eastwest;rotatable=0;whiteSpace=wrap;html=1;fillColor=none;fontColor=#ffffff;fontSize=16;" vertex="1" parent="zHDnDTDPrJPbukV9H9nl-39">
          <mxGeometry width="130" height="20" as="geometry" />
        </mxCell>
        <mxCell id="zHDnDTDPrJPbukV9H9nl-42" value="Projects" style="text;strokeColor=none;align=center;verticalAlign=middle;spacingLeft=10;spacingRight=10;points=[[0,0.5],[1,0.5]];portConstraint=eastwest;rotatable=0;whiteSpace=wrap;html=1;fillColor=none;fontColor=#9A9DA0;fontSize=14;" vertex="1" parent="zHDnDTDPrJPbukV9H9nl-39">
          <mxGeometry x="130" width="80" height="20" as="geometry" />
        </mxCell>
        <mxCell id="zHDnDTDPrJPbukV9H9nl-44" value="About" style="text;strokeColor=none;align=center;verticalAlign=middle;spacingLeft=10;spacingRight=10;points=[[0,0.5],[1,0.5]];portConstraint=eastwest;rotatable=0;whiteSpace=wrap;html=1;fillColor=none;fontColor=#9A9DA0;fontSize=14;" vertex="1" parent="zHDnDTDPrJPbukV9H9nl-39">
          <mxGeometry x="210" width="60" height="20" as="geometry" />
        </mxCell>
        <mxCell id="zHDnDTDPrJPbukV9H9nl-45" value="Search" style="html=1;shadow=0;dashed=0;shape=mxgraph.bootstrap.rrect;rSize=5;fontSize=14;fontColor=#1CA5B8;strokeColor=#1CA5B8;fillColor=none;" vertex="1" parent="zHDnDTDPrJPbukV9H9nl-38">
          <mxGeometry x="1" width="70" height="20" relative="1" as="geometry">
            <mxPoint x="-80" y="10" as="offset" />
          </mxGeometry>
        </mxCell>
        <mxCell id="zHDnDTDPrJPbukV9H9nl-46" value="Search" style="html=1;shadow=0;dashed=0;shape=mxgraph.bootstrap.rrect;rSize=5;fontSize=14;fontColor=#6C767D;strokeColor=#CED4DA;fillColor=#ffffff;align=left;spacing=10;" vertex="1" parent="zHDnDTDPrJPbukV9H9nl-38">
          <mxGeometry x="1" width="180" height="20" relative="1" as="geometry">
            <mxPoint x="-270" y="10" as="offset" />
          </mxGeometry>
        </mxCell>
        <mxCell id="zHDnDTDPrJPbukV9H9nl-49" value="&lt;b&gt;&lt;font style=&quot;font-size: 20px&quot;&gt;Card title&lt;/font&gt;&lt;/b&gt;&lt;br style=&quot;font-size: 14px&quot;&gt;&lt;br style=&quot;font-size: 14px&quot;&gt;Some quick example text to build on the card title and make up the bulk of the card&#39;s content." style="html=1;shadow=0;dashed=0;shape=mxgraph.bootstrap.rrect;rSize=5;strokeColor=#DFDFDF;html=1;whiteSpace=wrap;fillColor=#ffffff;fontColor=#000000;verticalAlign=bottom;align=left;spacing=20;spacingBottom=50;fontSize=14;" vertex="1" parent="zHDnDTDPrJPbukV9H9nl-35">
          <mxGeometry x="15" y="480" width="200" height="240" as="geometry" />
        </mxCell>
        <mxCell id="zHDnDTDPrJPbukV9H9nl-50" value="Project-1" style="html=1;shadow=0;dashed=0;shape=mxgraph.bootstrap.topButton;rSize=5;perimeter=none;whiteSpace=wrap;fillColor=#868E96;strokeColor=#DFDFDF;fontColor=#DEE2E6;resizeWidth=1;fontSize=18;" vertex="1" parent="zHDnDTDPrJPbukV9H9nl-49">
          <mxGeometry width="200" height="180" relative="1" as="geometry" />
        </mxCell>
        <mxCell id="zHDnDTDPrJPbukV9H9nl-51" value="Go to Docs" style="html=1;shadow=0;dashed=0;shape=mxgraph.bootstrap.rrect;rSize=5;perimeter=none;whiteSpace=wrap;fillColor=#0085FC;strokeColor=none;fontColor=#ffffff;resizeWidth=1;fontSize=14;" vertex="1" parent="zHDnDTDPrJPbukV9H9nl-49">
          <mxGeometry y="1" width="95.99999999999999" height="40" relative="1" as="geometry">
            <mxPoint x="20" y="-60" as="offset" />
          </mxGeometry>
        </mxCell>
        <mxCell id="zHDnDTDPrJPbukV9H9nl-52" value="&lt;b&gt;&lt;font style=&quot;font-size: 20px&quot;&gt;Card title&lt;/font&gt;&lt;/b&gt;&lt;br style=&quot;font-size: 14px&quot;&gt;&lt;br style=&quot;font-size: 14px&quot;&gt;Some quick example text to build on the card title and make up the bulk of the card&#39;s content." style="html=1;shadow=0;dashed=0;shape=mxgraph.bootstrap.rrect;rSize=5;strokeColor=#DFDFDF;html=1;whiteSpace=wrap;fillColor=#ffffff;fontColor=#000000;verticalAlign=bottom;align=left;spacing=20;spacingBottom=50;fontSize=14;" vertex="1" parent="zHDnDTDPrJPbukV9H9nl-35">
          <mxGeometry x="240" y="480" width="220" height="240" as="geometry" />
        </mxCell>
        <mxCell id="zHDnDTDPrJPbukV9H9nl-53" value="Project-2" style="html=1;shadow=0;dashed=0;shape=mxgraph.bootstrap.topButton;rSize=5;perimeter=none;whiteSpace=wrap;fillColor=#868E96;strokeColor=#DFDFDF;fontColor=#DEE2E6;resizeWidth=1;fontSize=18;" vertex="1" parent="zHDnDTDPrJPbukV9H9nl-52">
          <mxGeometry width="220" height="180" relative="1" as="geometry" />
        </mxCell>
        <mxCell id="zHDnDTDPrJPbukV9H9nl-54" value="Go to Docs" style="html=1;shadow=0;dashed=0;shape=mxgraph.bootstrap.rrect;rSize=5;perimeter=none;whiteSpace=wrap;fillColor=#0085FC;strokeColor=none;fontColor=#ffffff;resizeWidth=1;fontSize=14;" vertex="1" parent="zHDnDTDPrJPbukV9H9nl-52">
          <mxGeometry y="1" width="81.23076923076921" height="40" relative="1" as="geometry">
            <mxPoint x="20" y="-60" as="offset" />
          </mxGeometry>
        </mxCell>
        <mxCell id="zHDnDTDPrJPbukV9H9nl-55" value="&lt;b&gt;&lt;font style=&quot;font-size: 20px&quot;&gt;Card title&lt;/font&gt;&lt;/b&gt;&lt;br style=&quot;font-size: 14px&quot;&gt;&lt;br style=&quot;font-size: 14px&quot;&gt;Some quick example text to build on the card title and make up the bulk of the card&#39;s content." style="html=1;shadow=0;dashed=0;shape=mxgraph.bootstrap.rrect;rSize=5;strokeColor=#DFDFDF;html=1;whiteSpace=wrap;fillColor=#ffffff;fontColor=#000000;verticalAlign=bottom;align=left;spacing=20;spacingBottom=50;fontSize=14;" vertex="1" parent="zHDnDTDPrJPbukV9H9nl-35">
          <mxGeometry x="480" y="480" width="190" height="240" as="geometry" />
        </mxCell>
        <mxCell id="zHDnDTDPrJPbukV9H9nl-56" value="Project-3" style="html=1;shadow=0;dashed=0;shape=mxgraph.bootstrap.topButton;rSize=5;perimeter=none;whiteSpace=wrap;fillColor=#868E96;strokeColor=#DFDFDF;fontColor=#DEE2E6;resizeWidth=1;fontSize=18;" vertex="1" parent="zHDnDTDPrJPbukV9H9nl-55">
          <mxGeometry width="190" height="180" relative="1" as="geometry" />
        </mxCell>
        <mxCell id="zHDnDTDPrJPbukV9H9nl-57" value="Go to Docs" style="html=1;shadow=0;dashed=0;shape=mxgraph.bootstrap.rrect;rSize=5;perimeter=none;whiteSpace=wrap;fillColor=#0085FC;strokeColor=none;fontColor=#ffffff;resizeWidth=1;fontSize=14;" vertex="1" parent="zHDnDTDPrJPbukV9H9nl-55">
          <mxGeometry y="1" width="91.2" height="40" relative="1" as="geometry">
            <mxPoint x="20" y="-60" as="offset" />
          </mxGeometry>
        </mxCell>
        <mxCell id="zHDnDTDPrJPbukV9H9nl-58" value="" style="html=1;verticalLabelPosition=bottom;align=center;labelBackgroundColor=#ffffff;verticalAlign=top;strokeWidth=2;strokeColor=#0080F0;shadow=0;dashed=0;shape=mxgraph.ios7.icons.share;" vertex="1" parent="zHDnDTDPrJPbukV9H9nl-35">
          <mxGeometry x="390" y="300" width="21" height="28.5" as="geometry" />
        </mxCell>
        <mxCell id="zHDnDTDPrJPbukV9H9nl-59" value="Upload Your Comment" style="text;html=1;align=center;verticalAlign=middle;whiteSpace=wrap;rounded=0;" vertex="1" parent="zHDnDTDPrJPbukV9H9nl-35">
          <mxGeometry x="240" y="294.25" width="130" height="40" as="geometry" />
        </mxCell>
        <mxCell id="zHDnDTDPrJPbukV9H9nl-62" value="Submit" style="labelPosition=center;verticalLabelPosition=middle;align=center;html=1;shape=mxgraph.basic.button;dx=10;whiteSpace=wrap;" vertex="1" parent="zHDnDTDPrJPbukV9H9nl-35">
          <mxGeometry x="240" y="340" width="170" height="40" as="geometry" />
        </mxCell>
        <mxCell id="zHDnDTDPrJPbukV9H9nl-74" value="&lt;font color=&quot;#596780&quot;&gt;&lt;b&gt;Project 1&lt;/b&gt;&lt;/font&gt;&lt;div&gt;&lt;div&gt;&lt;/div&gt;&lt;/div&gt;&lt;div&gt;&lt;font color=&quot;#596780&quot;&gt;&lt;b&gt;Project 2&lt;/b&gt;&lt;/font&gt;&lt;/div&gt;&lt;div&gt;&lt;font color=&quot;#596780&quot;&gt;&lt;b&gt;Project 3&lt;/b&gt;&lt;/font&gt;&lt;/div&gt;&lt;div&gt;&lt;font color=&quot;#596780&quot;&gt;&lt;b&gt;&lt;br&gt;&lt;/b&gt;&lt;/font&gt;&lt;/div&gt;" style="html=1;rounded=1;fillColor=#ffffff;strokeColor=#DFE1E5;fontSize=12;align=left;fontColor=#000000;shadow=1;arcSize=1;whiteSpace=wrap;spacing=2;verticalAlign=top;fontStyle=0;spacingLeft=20;spacingTop=15;sketch=1;hachureGap=4;pointerEvents=0;fontFamily=Architects Daughter;fontSource=https%3A%2F%2Ffonts.googleapis.com%2Fcss%3Ffamily%3DArchitects%2BDaughter;" vertex="1" parent="zHDnDTDPrJPbukV9H9nl-35">
          <mxGeometry x="149.99769230769232" y="213" width="287.6923076923077" height="70" as="geometry" />
        </mxCell>
        <mxCell id="zHDnDTDPrJPbukV9H9nl-75" value="" style="rounded=0;fillColor=#000000;strokeColor=none;html=1;opacity=10;resizeWidth=1;sketch=1;hachureGap=4;pointerEvents=0;fontFamily=Architects Daughter;fontSource=https%3A%2F%2Ffonts.googleapis.com%2Fcss%3Ffamily%3DArchitects%2BDaughter;fontSize=20;" vertex="1" parent="zHDnDTDPrJPbukV9H9nl-74">
          <mxGeometry width="287.6923076923077" height="20" relative="1" as="geometry">
            <mxPoint y="49" as="offset" />
          </mxGeometry>
        </mxCell>
        <mxCell id="zHDnDTDPrJPbukV9H9nl-72" value="Project 2" style="rounded=1;arcSize=9;fillColor=#ffffff;strokeColor=#4C9AFF;html=1;strokeWidth=2;spacingLeft=5;fontColor=#000000;align=left;sketch=1;hachureGap=4;pointerEvents=0;fontFamily=Architects Daughter;fontSource=https%3A%2F%2Ffonts.googleapis.com%2Fcss%3Ffamily%3DArchitects%2BDaughter;fontSize=20;" vertex="1" parent="zHDnDTDPrJPbukV9H9nl-35">
          <mxGeometry x="150" y="180" width="340" height="33" as="geometry" />
        </mxCell>
        <mxCell id="zHDnDTDPrJPbukV9H9nl-73" value="" style="html=1;shadow=0;dashed=0;shape=mxgraph.atlassian.close;fillColor=#97A0AF;strokeColor=none;sketch=0;hachureGap=4;pointerEvents=0;fontFamily=Architects Daughter;fontSource=https%3A%2F%2Ffonts.googleapis.com%2Fcss%3Ffamily%3DArchitects%2BDaughter;fontSize=20;" vertex="1" parent="zHDnDTDPrJPbukV9H9nl-72">
          <mxGeometry x="1" y="0.5" width="14" height="14" relative="1" as="geometry">
            <mxPoint x="-28" y="-7" as="offset" />
          </mxGeometry>
        </mxCell>
        <mxCell id="zHDnDTDPrJPbukV9H9nl-71" value="Select the project you willl add to" style="html=1;fillColor=none;strokeColor=none;fontSize=11;align=left;fontColor=#596780;whiteSpace=wrap;sketch=1;hachureGap=4;pointerEvents=0;fontFamily=Architects Daughter;fontSource=https%3A%2F%2Ffonts.googleapis.com%2Fcss%3Ffamily%3DArchitects%2BDaughter;" vertex="1" parent="zHDnDTDPrJPbukV9H9nl-35">
          <mxGeometry x="150" y="160" width="200" height="20" as="geometry" />
        </mxCell>
        <mxCell id="zHDnDTDPrJPbukV9H9nl-103" value="Projects slider" style="text;html=1;align=center;verticalAlign=middle;whiteSpace=wrap;rounded=0;" vertex="1" parent="zHDnDTDPrJPbukV9H9nl-35">
          <mxGeometry x="240" y="440" width="180" height="30" as="geometry" />
        </mxCell>
        <mxCell id="zHDnDTDPrJPbukV9H9nl-76" value="" style="strokeWidth=1;shadow=0;dashed=0;align=center;html=1;shape=mxgraph.mockup.containers.browserWindow;rSize=0;strokeColor=#666666;strokeColor2=#008cff;strokeColor3=#c4c4c4;mainText=,;recursiveResize=0;" vertex="1" parent="1">
          <mxGeometry x="1650" y="90" width="680" height="730" as="geometry" />
        </mxCell>
        <mxCell id="zHDnDTDPrJPbukV9H9nl-77" value="Home" style="strokeWidth=1;shadow=0;dashed=0;align=center;html=1;shape=mxgraph.mockup.containers.anchor;fontSize=17;fontColor=#666666;align=left;whiteSpace=wrap;" vertex="1" parent="zHDnDTDPrJPbukV9H9nl-76">
          <mxGeometry x="60" y="12" width="110" height="26" as="geometry" />
        </mxCell>
        <mxCell id="zHDnDTDPrJPbukV9H9nl-78" value="https://www.ProjectHub.com/Home" style="strokeWidth=1;shadow=0;dashed=0;align=center;html=1;shape=mxgraph.mockup.containers.anchor;rSize=0;fontSize=17;fontColor=#666666;align=left;" vertex="1" parent="zHDnDTDPrJPbukV9H9nl-76">
          <mxGeometry x="130" y="60" width="250" height="26" as="geometry" />
        </mxCell>
        <mxCell id="zHDnDTDPrJPbukV9H9nl-79" value="" style="html=1;shadow=0;dashed=0;fillColor=#343A40;strokeColor=none;fontSize=16;fontColor=#ffffff;align=left;spacing=15;" vertex="1" parent="zHDnDTDPrJPbukV9H9nl-76">
          <mxGeometry y="100" width="680" height="40" as="geometry" />
        </mxCell>
        <mxCell id="zHDnDTDPrJPbukV9H9nl-80" value="" style="swimlane;shape=mxgraph.bootstrap.anchor;strokeColor=none;fillColor=none;fontColor=#0085FC;fontStyle=0;childLayout=stackLayout;horizontal=0;startSize=0;horizontalStack=1;resizeParent=1;resizeParentMax=0;resizeLast=0;collapsible=0;marginBottom=0;whiteSpace=wrap;html=1;resizeWidth=0;" vertex="1" parent="zHDnDTDPrJPbukV9H9nl-79">
          <mxGeometry y="6.67" width="400" height="20" as="geometry" />
        </mxCell>
        <mxCell id="zHDnDTDPrJPbukV9H9nl-81" value="Home(Admin)" style="text;strokeColor=none;align=left;verticalAlign=middle;spacingLeft=15;spacingRight=10;points=[[0,0.5],[1,0.5]];portConstraint=eastwest;rotatable=0;whiteSpace=wrap;html=1;fillColor=none;fontColor=#ffffff;fontSize=16;" vertex="1" parent="zHDnDTDPrJPbukV9H9nl-80">
          <mxGeometry width="130" height="20" as="geometry" />
        </mxCell>
        <mxCell id="zHDnDTDPrJPbukV9H9nl-82" value="Projects" style="text;strokeColor=none;align=center;verticalAlign=middle;spacingLeft=10;spacingRight=10;points=[[0,0.5],[1,0.5]];portConstraint=eastwest;rotatable=0;whiteSpace=wrap;html=1;fillColor=none;fontColor=#9A9DA0;fontSize=14;" vertex="1" parent="zHDnDTDPrJPbukV9H9nl-80">
          <mxGeometry x="130" width="80" height="20" as="geometry" />
        </mxCell>
        <mxCell id="zHDnDTDPrJPbukV9H9nl-83" value="Create New User" style="text;strokeColor=none;align=center;verticalAlign=middle;spacingLeft=10;spacingRight=10;points=[[0,0.5],[1,0.5]];portConstraint=eastwest;rotatable=0;whiteSpace=wrap;html=1;fillColor=none;fontColor=#9A9DA0;fontSize=14;" vertex="1" parent="zHDnDTDPrJPbukV9H9nl-80">
          <mxGeometry x="210" width="130" height="20" as="geometry" />
        </mxCell>
        <mxCell id="zHDnDTDPrJPbukV9H9nl-110" value="About" style="text;strokeColor=none;align=center;verticalAlign=middle;spacingLeft=10;spacingRight=10;points=[[0,0.5],[1,0.5]];portConstraint=eastwest;rotatable=0;whiteSpace=wrap;html=1;fillColor=none;fontColor=#9A9DA0;fontSize=14;" vertex="1" parent="zHDnDTDPrJPbukV9H9nl-80">
          <mxGeometry x="340" width="60" height="20" as="geometry" />
        </mxCell>
        <mxCell id="zHDnDTDPrJPbukV9H9nl-85" value="Search" style="html=1;shadow=0;dashed=0;shape=mxgraph.bootstrap.rrect;rSize=5;fontSize=14;fontColor=#6C767D;strokeColor=#CED4DA;fillColor=#ffffff;align=left;spacing=10;" vertex="1" parent="zHDnDTDPrJPbukV9H9nl-79">
          <mxGeometry x="1" width="111" height="20" relative="1" as="geometry">
            <mxPoint x="-271" y="10" as="offset" />
          </mxGeometry>
        </mxCell>
        <mxCell id="zHDnDTDPrJPbukV9H9nl-104" value="Logout" style="text;strokeColor=none;align=center;verticalAlign=middle;spacingLeft=10;spacingRight=10;points=[[0,0.5],[1,0.5]];portConstraint=eastwest;rotatable=0;whiteSpace=wrap;html=1;fillColor=none;fontColor=#9A9DA0;fontSize=14;" vertex="1" parent="zHDnDTDPrJPbukV9H9nl-79">
          <mxGeometry x="610" y="9.996666666666657" width="60" height="20" as="geometry" />
        </mxCell>
        <mxCell id="zHDnDTDPrJPbukV9H9nl-84" value="Search" style="html=1;shadow=0;dashed=0;shape=mxgraph.bootstrap.rrect;rSize=5;fontSize=14;fontColor=#1CA5B8;strokeColor=#1CA5B8;fillColor=none;" vertex="1" parent="zHDnDTDPrJPbukV9H9nl-79">
          <mxGeometry x="1" width="70" height="20" relative="1" as="geometry">
            <mxPoint x="-150" y="10" as="offset" />
          </mxGeometry>
        </mxCell>
        <mxCell id="zHDnDTDPrJPbukV9H9nl-86" value="&lt;b&gt;&lt;font style=&quot;font-size: 20px&quot;&gt;Card title&lt;/font&gt;&lt;/b&gt;&lt;br style=&quot;font-size: 14px&quot;&gt;&lt;br style=&quot;font-size: 14px&quot;&gt;Some quick example text to build on the card title and make up the bulk of the card&#39;s content." style="html=1;shadow=0;dashed=0;shape=mxgraph.bootstrap.rrect;rSize=5;strokeColor=#DFDFDF;html=1;whiteSpace=wrap;fillColor=#ffffff;fontColor=#000000;verticalAlign=bottom;align=left;spacing=20;spacingBottom=50;fontSize=14;" vertex="1" parent="zHDnDTDPrJPbukV9H9nl-76">
          <mxGeometry x="15" y="480" width="200" height="240" as="geometry" />
        </mxCell>
        <mxCell id="zHDnDTDPrJPbukV9H9nl-87" value="Project-1" style="html=1;shadow=0;dashed=0;shape=mxgraph.bootstrap.topButton;rSize=5;perimeter=none;whiteSpace=wrap;fillColor=#868E96;strokeColor=#DFDFDF;fontColor=#DEE2E6;resizeWidth=1;fontSize=18;" vertex="1" parent="zHDnDTDPrJPbukV9H9nl-86">
          <mxGeometry width="200" height="180" relative="1" as="geometry" />
        </mxCell>
        <mxCell id="zHDnDTDPrJPbukV9H9nl-88" value="Go to Docs" style="html=1;shadow=0;dashed=0;shape=mxgraph.bootstrap.rrect;rSize=5;perimeter=none;whiteSpace=wrap;fillColor=#0085FC;strokeColor=none;fontColor=#ffffff;resizeWidth=1;fontSize=14;" vertex="1" parent="zHDnDTDPrJPbukV9H9nl-86">
          <mxGeometry y="1" width="95.99999999999999" height="40" relative="1" as="geometry">
            <mxPoint x="20" y="-60" as="offset" />
          </mxGeometry>
        </mxCell>
        <mxCell id="zHDnDTDPrJPbukV9H9nl-89" value="&lt;b&gt;&lt;font style=&quot;font-size: 20px&quot;&gt;Card title&lt;/font&gt;&lt;/b&gt;&lt;br style=&quot;font-size: 14px&quot;&gt;&lt;br style=&quot;font-size: 14px&quot;&gt;Some quick example text to build on the card title and make up the bulk of the card&#39;s content." style="html=1;shadow=0;dashed=0;shape=mxgraph.bootstrap.rrect;rSize=5;strokeColor=#DFDFDF;html=1;whiteSpace=wrap;fillColor=#ffffff;fontColor=#000000;verticalAlign=bottom;align=left;spacing=20;spacingBottom=50;fontSize=14;" vertex="1" parent="zHDnDTDPrJPbukV9H9nl-76">
          <mxGeometry x="240" y="480" width="220" height="240" as="geometry" />
        </mxCell>
        <mxCell id="zHDnDTDPrJPbukV9H9nl-90" value="Project-2" style="html=1;shadow=0;dashed=0;shape=mxgraph.bootstrap.topButton;rSize=5;perimeter=none;whiteSpace=wrap;fillColor=#868E96;strokeColor=#DFDFDF;fontColor=#DEE2E6;resizeWidth=1;fontSize=18;" vertex="1" parent="zHDnDTDPrJPbukV9H9nl-89">
          <mxGeometry width="220" height="180" relative="1" as="geometry" />
        </mxCell>
        <mxCell id="zHDnDTDPrJPbukV9H9nl-91" value="Go to Docs" style="html=1;shadow=0;dashed=0;shape=mxgraph.bootstrap.rrect;rSize=5;perimeter=none;whiteSpace=wrap;fillColor=#0085FC;strokeColor=none;fontColor=#ffffff;resizeWidth=1;fontSize=14;" vertex="1" parent="zHDnDTDPrJPbukV9H9nl-89">
          <mxGeometry y="1" width="81.23076923076921" height="40" relative="1" as="geometry">
            <mxPoint x="20" y="-60" as="offset" />
          </mxGeometry>
        </mxCell>
        <mxCell id="zHDnDTDPrJPbukV9H9nl-92" value="&lt;b&gt;&lt;font style=&quot;font-size: 20px&quot;&gt;Card title&lt;/font&gt;&lt;/b&gt;&lt;br style=&quot;font-size: 14px&quot;&gt;&lt;br style=&quot;font-size: 14px&quot;&gt;Some quick example text to build on the card title and make up the bulk of the card&#39;s content." style="html=1;shadow=0;dashed=0;shape=mxgraph.bootstrap.rrect;rSize=5;strokeColor=#DFDFDF;html=1;whiteSpace=wrap;fillColor=#ffffff;fontColor=#000000;verticalAlign=bottom;align=left;spacing=20;spacingBottom=50;fontSize=14;" vertex="1" parent="zHDnDTDPrJPbukV9H9nl-76">
          <mxGeometry x="480" y="480" width="190" height="240" as="geometry" />
        </mxCell>
        <mxCell id="zHDnDTDPrJPbukV9H9nl-93" value="Project-3" style="html=1;shadow=0;dashed=0;shape=mxgraph.bootstrap.topButton;rSize=5;perimeter=none;whiteSpace=wrap;fillColor=#868E96;strokeColor=#DFDFDF;fontColor=#DEE2E6;resizeWidth=1;fontSize=18;" vertex="1" parent="zHDnDTDPrJPbukV9H9nl-92">
          <mxGeometry width="190" height="180" relative="1" as="geometry" />
        </mxCell>
        <mxCell id="zHDnDTDPrJPbukV9H9nl-94" value="Go to Docs" style="html=1;shadow=0;dashed=0;shape=mxgraph.bootstrap.rrect;rSize=5;perimeter=none;whiteSpace=wrap;fillColor=#0085FC;strokeColor=none;fontColor=#ffffff;resizeWidth=1;fontSize=14;" vertex="1" parent="zHDnDTDPrJPbukV9H9nl-92">
          <mxGeometry y="1" width="91.2" height="40" relative="1" as="geometry">
            <mxPoint x="20" y="-60" as="offset" />
          </mxGeometry>
        </mxCell>
        <mxCell id="zHDnDTDPrJPbukV9H9nl-98" value="&lt;font color=&quot;#596780&quot;&gt;&lt;b&gt;Project 1&lt;/b&gt;&lt;/font&gt;&lt;div&gt;&lt;div&gt;&lt;/div&gt;&lt;/div&gt;&lt;div&gt;&lt;font color=&quot;#596780&quot;&gt;&lt;b&gt;Project 2&lt;/b&gt;&lt;/font&gt;&lt;/div&gt;&lt;div&gt;&lt;font color=&quot;#596780&quot;&gt;&lt;b&gt;Project 3&lt;/b&gt;&lt;/font&gt;&lt;/div&gt;&lt;div&gt;&lt;font color=&quot;#596780&quot;&gt;&lt;b&gt;&lt;br&gt;&lt;/b&gt;&lt;/font&gt;&lt;/div&gt;" style="html=1;rounded=1;fillColor=#ffffff;strokeColor=#DFE1E5;fontSize=12;align=left;fontColor=#000000;shadow=1;arcSize=1;whiteSpace=wrap;spacing=2;verticalAlign=top;fontStyle=0;spacingLeft=20;spacingTop=15;sketch=1;hachureGap=4;pointerEvents=0;fontFamily=Architects Daughter;fontSource=https%3A%2F%2Ffonts.googleapis.com%2Fcss%3Ffamily%3DArchitects%2BDaughter;" vertex="1" parent="zHDnDTDPrJPbukV9H9nl-76">
          <mxGeometry x="19.99769230769232" y="210" width="287.6923076923077" height="70" as="geometry" />
        </mxCell>
        <mxCell id="zHDnDTDPrJPbukV9H9nl-99" value="" style="rounded=0;fillColor=#000000;strokeColor=none;html=1;opacity=10;resizeWidth=1;sketch=1;hachureGap=4;pointerEvents=0;fontFamily=Architects Daughter;fontSource=https%3A%2F%2Ffonts.googleapis.com%2Fcss%3Ffamily%3DArchitects%2BDaughter;fontSize=20;" vertex="1" parent="zHDnDTDPrJPbukV9H9nl-98">
          <mxGeometry width="287.69" height="20" relative="1" as="geometry">
            <mxPoint y="20" as="offset" />
          </mxGeometry>
        </mxCell>
        <mxCell id="zHDnDTDPrJPbukV9H9nl-100" value="Project 2" style="rounded=1;arcSize=9;fillColor=#ffffff;strokeColor=#4C9AFF;html=1;strokeWidth=2;spacingLeft=5;fontColor=#000000;align=left;sketch=1;hachureGap=4;pointerEvents=0;fontFamily=Architects Daughter;fontSource=https%3A%2F%2Ffonts.googleapis.com%2Fcss%3Ffamily%3DArchitects%2BDaughter;fontSize=20;" vertex="1" parent="zHDnDTDPrJPbukV9H9nl-76">
          <mxGeometry x="20" y="180" width="340" height="33" as="geometry" />
        </mxCell>
        <mxCell id="zHDnDTDPrJPbukV9H9nl-101" value="" style="html=1;shadow=0;dashed=0;shape=mxgraph.atlassian.close;fillColor=#97A0AF;strokeColor=none;sketch=0;hachureGap=4;pointerEvents=0;fontFamily=Architects Daughter;fontSource=https%3A%2F%2Ffonts.googleapis.com%2Fcss%3Ffamily%3DArchitects%2BDaughter;fontSize=20;" vertex="1" parent="zHDnDTDPrJPbukV9H9nl-100">
          <mxGeometry x="1" y="0.5" width="14" height="14" relative="1" as="geometry">
            <mxPoint x="-28" y="-7" as="offset" />
          </mxGeometry>
        </mxCell>
        <mxCell id="zHDnDTDPrJPbukV9H9nl-102" value="Select Project to modify" style="html=1;fillColor=none;strokeColor=none;fontSize=11;align=left;fontColor=#596780;whiteSpace=wrap;sketch=1;hachureGap=4;pointerEvents=0;fontFamily=Architects Daughter;fontSource=https%3A%2F%2Ffonts.googleapis.com%2Fcss%3Ffamily%3DArchitects%2BDaughter;" vertex="1" parent="zHDnDTDPrJPbukV9H9nl-76">
          <mxGeometry x="20" y="160" width="200" height="20" as="geometry" />
        </mxCell>
        <mxCell id="zHDnDTDPrJPbukV9H9nl-105" value="" style="html=1;verticalLabelPosition=bottom;align=center;labelBackgroundColor=#ffffff;verticalAlign=top;strokeWidth=2;strokeColor=#0080F0;shadow=0;dashed=0;shape=mxgraph.ios7.icons.add;" vertex="1" parent="zHDnDTDPrJPbukV9H9nl-76">
          <mxGeometry x="185" y="300" width="30" height="30" as="geometry" />
        </mxCell>
        <mxCell id="zHDnDTDPrJPbukV9H9nl-106" value="" style="html=1;verticalLabelPosition=bottom;align=center;labelBackgroundColor=#ffffff;verticalAlign=top;strokeWidth=2;strokeColor=#0080F0;shadow=0;dashed=0;shape=mxgraph.ios7.icons.delete;" vertex="1" parent="zHDnDTDPrJPbukV9H9nl-76">
          <mxGeometry x="30" y="300" width="30" height="30" as="geometry" />
        </mxCell>
        <mxCell id="zHDnDTDPrJPbukV9H9nl-107" value="Delete" style="text;html=1;align=center;verticalAlign=middle;whiteSpace=wrap;rounded=0;" vertex="1" parent="zHDnDTDPrJPbukV9H9nl-76">
          <mxGeometry x="60" y="300" width="60" height="30" as="geometry" />
        </mxCell>
        <mxCell id="zHDnDTDPrJPbukV9H9nl-108" value="Create" style="text;html=1;align=center;verticalAlign=middle;whiteSpace=wrap;rounded=0;" vertex="1" parent="zHDnDTDPrJPbukV9H9nl-76">
          <mxGeometry x="220" y="300" width="60" height="30" as="geometry" />
        </mxCell>
        <mxCell id="zHDnDTDPrJPbukV9H9nl-116" value="" style="verticalLabelPosition=bottom;shadow=0;dashed=0;align=center;html=1;verticalAlign=top;strokeWidth=1;shape=mxgraph.mockup.graphics.pieChart;strokeColor=#008cff;parts=10,20,35;partColors=#e0e0e0,#d0d0d0,#c0c0c0,#b0b0b0,#a0a0a0;strokeWidth=2;" vertex="1" parent="zHDnDTDPrJPbukV9H9nl-76">
          <mxGeometry x="430" y="170" width="200" height="170" as="geometry" />
        </mxCell>
        <mxCell id="zHDnDTDPrJPbukV9H9nl-117" value="CIE" style="text;html=1;align=center;verticalAlign=middle;whiteSpace=wrap;rounded=0;" vertex="1" parent="zHDnDTDPrJPbukV9H9nl-76">
          <mxGeometry x="545" y="240" width="60" height="30" as="geometry" />
        </mxCell>
        <mxCell id="zHDnDTDPrJPbukV9H9nl-118" value="AeroSpace" style="text;html=1;align=center;verticalAlign=middle;whiteSpace=wrap;rounded=0;" vertex="1" parent="zHDnDTDPrJPbukV9H9nl-76">
          <mxGeometry x="445" y="250" width="60" height="30" as="geometry" />
        </mxCell>
        <mxCell id="zHDnDTDPrJPbukV9H9nl-119" value="NanoTech" style="text;html=1;align=center;verticalAlign=middle;whiteSpace=wrap;rounded=0;" vertex="1" parent="zHDnDTDPrJPbukV9H9nl-76">
          <mxGeometry x="470" y="190" width="60" height="30" as="geometry" />
        </mxCell>
        <mxCell id="zHDnDTDPrJPbukV9H9nl-120" value="projects per major" style="text;html=1;align=center;verticalAlign=middle;whiteSpace=wrap;rounded=0;" vertex="1" parent="zHDnDTDPrJPbukV9H9nl-76">
          <mxGeometry x="490" y="350" width="100" height="30" as="geometry" />
        </mxCell>
        <mxCell id="zHDnDTDPrJPbukV9H9nl-121" value="Delete" style="html=1;fillColor=none;strokeColor=none;fontSize=11;align=left;fontColor=#596780;whiteSpace=wrap;" vertex="1" parent="1">
          <mxGeometry x="2350" y="250" width="150" height="20" as="geometry" />
        </mxCell>
        <mxCell id="zHDnDTDPrJPbukV9H9nl-122" value="" style="rounded=1;arcSize=9;fillColor=#ffffff;strokeColor=#4C9AFF;html=1;strokeWidth=2;spacingLeft=30;fontColor=#000000;align=left" vertex="1" parent="1">
          <mxGeometry x="2350" y="275" width="270" height="33" as="geometry" />
        </mxCell>
        <mxCell id="zHDnDTDPrJPbukV9H9nl-123" value="" style="shape=step;whiteSpace=wrap;html=1;rounded=0;strokeColor=none;strokeWidth=2;fillColor=#0A1E43;gradientColor=none;fontFamily=Verdana;fontSize=14;fontColor=#000000;align=left;direction=south;size=0.65;" vertex="1" parent="zHDnDTDPrJPbukV9H9nl-122">
          <mxGeometry x="1" y="0.5" width="10" height="7" relative="1" as="geometry">
            <mxPoint x="-24" y="-3" as="offset" />
          </mxGeometry>
        </mxCell>
        <mxCell id="zHDnDTDPrJPbukV9H9nl-124" value="&lt;div&gt;Assignment 1&lt;/div&gt;" style="rounded=1;arcSize=9;fillColor=#ECEDF1;strokeColor=none;html=1;strokeWidth=2;spacingLeft=4;fontColor=#000000;align=left;fontSize=11" vertex="1" parent="zHDnDTDPrJPbukV9H9nl-122">
          <mxGeometry y="0.5" width="70" height="20" relative="1" as="geometry">
            <mxPoint x="5" y="-10" as="offset" />
          </mxGeometry>
        </mxCell>
        <mxCell id="zHDnDTDPrJPbukV9H9nl-125" value="" style="html=1;shadow=0;dashed=0;shape=mxgraph.atlassian.x;strokeColor=#58667F;strokeWidth=2" vertex="1" parent="zHDnDTDPrJPbukV9H9nl-124">
          <mxGeometry x="1" y="0.5" width="7" height="7" relative="1" as="geometry">
            <mxPoint x="-14" y="-3" as="offset" />
          </mxGeometry>
        </mxCell>
        <mxCell id="zHDnDTDPrJPbukV9H9nl-126" value="&lt;font style=&quot;font-size: 14px;&quot;&gt;Assignment 1&lt;/font&gt;&lt;div&gt;&lt;font size=&quot;3&quot;&gt;Assignment 2&lt;/font&gt;&lt;/div&gt;&lt;div&gt;&lt;font size=&quot;3&quot;&gt;&lt;span style=&quot;background-color: initial;&quot;&gt;Assignment 3&lt;/span&gt;&lt;br&gt;&lt;/font&gt;&lt;/div&gt;&lt;div&gt;&lt;font size=&quot;3&quot;&gt;Assignment 4&lt;/font&gt;&lt;br&gt;&lt;/div&gt;" style="html=1;rounded=1;fillColor=#ffffff;strokeColor=#DFE1E5;fontSize=12;align=left;fontColor=#000000;shadow=1;arcSize=1;whiteSpace=wrap;spacing=2;verticalAlign=top;fontStyle=0;spacingLeft=20;spacingTop=15;" vertex="1" parent="1">
          <mxGeometry x="2350" y="310" width="270" height="110" as="geometry" />
        </mxCell>
        <mxCell id="zHDnDTDPrJPbukV9H9nl-127" value="" style="rounded=0;fillColor=#000000;strokeColor=none;html=1;opacity=10;resizeWidth=1" vertex="1" parent="zHDnDTDPrJPbukV9H9nl-126">
          <mxGeometry width="270" height="20" relative="1" as="geometry">
            <mxPoint x="10" y="20" as="offset" />
          </mxGeometry>
        </mxCell>
        <mxCell id="zHDnDTDPrJPbukV9H9nl-129" value="Create" style="fillColor=none;strokeColor=none;align=left;fontSize=14;" vertex="1" parent="1">
          <mxGeometry x="2357.5" y="450" width="100" height="40" as="geometry" />
        </mxCell>
        <mxCell id="zHDnDTDPrJPbukV9H9nl-130" value="Choose File" style="fillColor=#FEFEFE;strokeColor=#AAAAAA;fontSize=14;gradientColor=#F0F0F0;" vertex="1" parent="1">
          <mxGeometry x="2357.5" y="490" width="90" height="30" as="geometry" />
        </mxCell>
        <mxCell id="zHDnDTDPrJPbukV9H9nl-131" value="No file chosen" style="fillColor=none;strokeColor=none;align=left;fontSize=14;spacing=5;" vertex="1" parent="1">
          <mxGeometry x="2457.5" y="490" width="100" height="30" as="geometry" />
        </mxCell>
        <mxCell id="zHDnDTDPrJPbukV9H9nl-132" value="Submit" style="labelPosition=center;verticalLabelPosition=middle;align=center;html=1;shape=mxgraph.basic.button;dx=10;whiteSpace=wrap;" vertex="1" parent="1">
          <mxGeometry x="2357.5" y="530" width="85" height="40" as="geometry" />
        </mxCell>
        <mxCell id="zHDnDTDPrJPbukV9H9nl-133" value="" style="strokeWidth=1;shadow=0;dashed=0;align=center;html=1;shape=mxgraph.mockup.containers.browserWindow;rSize=0;strokeColor=#666666;strokeColor2=#008cff;strokeColor3=#c4c4c4;mainText=,;recursiveResize=0;" vertex="1" parent="1">
          <mxGeometry x="1630" y="860" width="680" height="730" as="geometry" />
        </mxCell>
        <mxCell id="zHDnDTDPrJPbukV9H9nl-134" value="Home" style="strokeWidth=1;shadow=0;dashed=0;align=center;html=1;shape=mxgraph.mockup.containers.anchor;fontSize=17;fontColor=#666666;align=left;whiteSpace=wrap;" vertex="1" parent="zHDnDTDPrJPbukV9H9nl-133">
          <mxGeometry x="60" y="12" width="110" height="26" as="geometry" />
        </mxCell>
        <mxCell id="zHDnDTDPrJPbukV9H9nl-135" value="https://www.ProjectHub.com/Home" style="strokeWidth=1;shadow=0;dashed=0;align=center;html=1;shape=mxgraph.mockup.containers.anchor;rSize=0;fontSize=17;fontColor=#666666;align=left;" vertex="1" parent="zHDnDTDPrJPbukV9H9nl-133">
          <mxGeometry x="130" y="60" width="250" height="26" as="geometry" />
        </mxCell>
        <mxCell id="zHDnDTDPrJPbukV9H9nl-136" value="" style="html=1;shadow=0;dashed=0;fillColor=#343A40;strokeColor=none;fontSize=16;fontColor=#ffffff;align=left;spacing=15;" vertex="1" parent="zHDnDTDPrJPbukV9H9nl-133">
          <mxGeometry y="100" width="680" height="40" as="geometry" />
        </mxCell>
        <mxCell id="zHDnDTDPrJPbukV9H9nl-137" value="" style="swimlane;shape=mxgraph.bootstrap.anchor;strokeColor=none;fillColor=none;fontColor=#0085FC;fontStyle=0;childLayout=stackLayout;horizontal=0;startSize=0;horizontalStack=1;resizeParent=1;resizeParentMax=0;resizeLast=0;collapsible=0;marginBottom=0;whiteSpace=wrap;html=1;resizeWidth=0;" vertex="1" parent="zHDnDTDPrJPbukV9H9nl-136">
          <mxGeometry y="6.67" width="270" height="20" as="geometry" />
        </mxCell>
        <mxCell id="zHDnDTDPrJPbukV9H9nl-138" value="Home(Advisor)" style="text;strokeColor=none;align=left;verticalAlign=middle;spacingLeft=15;spacingRight=10;points=[[0,0.5],[1,0.5]];portConstraint=eastwest;rotatable=0;whiteSpace=wrap;html=1;fillColor=none;fontColor=#ffffff;fontSize=16;" vertex="1" parent="zHDnDTDPrJPbukV9H9nl-137">
          <mxGeometry width="130" height="20" as="geometry" />
        </mxCell>
        <mxCell id="zHDnDTDPrJPbukV9H9nl-139" value="Projects" style="text;strokeColor=none;align=center;verticalAlign=middle;spacingLeft=10;spacingRight=10;points=[[0,0.5],[1,0.5]];portConstraint=eastwest;rotatable=0;whiteSpace=wrap;html=1;fillColor=none;fontColor=#9A9DA0;fontSize=14;" vertex="1" parent="zHDnDTDPrJPbukV9H9nl-137">
          <mxGeometry x="130" width="80" height="20" as="geometry" />
        </mxCell>
        <mxCell id="zHDnDTDPrJPbukV9H9nl-141" value="About" style="text;strokeColor=none;align=center;verticalAlign=middle;spacingLeft=10;spacingRight=10;points=[[0,0.5],[1,0.5]];portConstraint=eastwest;rotatable=0;whiteSpace=wrap;html=1;fillColor=none;fontColor=#9A9DA0;fontSize=14;" vertex="1" parent="zHDnDTDPrJPbukV9H9nl-137">
          <mxGeometry x="210" width="60" height="20" as="geometry" />
        </mxCell>
        <mxCell id="zHDnDTDPrJPbukV9H9nl-142" value="Search" style="html=1;shadow=0;dashed=0;shape=mxgraph.bootstrap.rrect;rSize=5;fontSize=14;fontColor=#6C767D;strokeColor=#CED4DA;fillColor=#ffffff;align=left;spacing=10;" vertex="1" parent="zHDnDTDPrJPbukV9H9nl-136">
          <mxGeometry x="1" width="111" height="20" relative="1" as="geometry">
            <mxPoint x="-271" y="10" as="offset" />
          </mxGeometry>
        </mxCell>
        <mxCell id="zHDnDTDPrJPbukV9H9nl-143" value="Logout" style="text;strokeColor=none;align=center;verticalAlign=middle;spacingLeft=10;spacingRight=10;points=[[0,0.5],[1,0.5]];portConstraint=eastwest;rotatable=0;whiteSpace=wrap;html=1;fillColor=none;fontColor=#9A9DA0;fontSize=14;" vertex="1" parent="zHDnDTDPrJPbukV9H9nl-136">
          <mxGeometry x="610" y="9.996666666666657" width="60" height="20" as="geometry" />
        </mxCell>
        <mxCell id="zHDnDTDPrJPbukV9H9nl-144" value="Search" style="html=1;shadow=0;dashed=0;shape=mxgraph.bootstrap.rrect;rSize=5;fontSize=14;fontColor=#1CA5B8;strokeColor=#1CA5B8;fillColor=none;" vertex="1" parent="zHDnDTDPrJPbukV9H9nl-136">
          <mxGeometry x="1" width="70" height="20" relative="1" as="geometry">
            <mxPoint x="-150" y="10" as="offset" />
          </mxGeometry>
        </mxCell>
        <mxCell id="zHDnDTDPrJPbukV9H9nl-145" value="&lt;b&gt;&lt;font style=&quot;font-size: 20px&quot;&gt;Card title&lt;/font&gt;&lt;/b&gt;&lt;br style=&quot;font-size: 14px&quot;&gt;&lt;br style=&quot;font-size: 14px&quot;&gt;Some quick example text to build on the card title and make up the bulk of the card&#39;s content." style="html=1;shadow=0;dashed=0;shape=mxgraph.bootstrap.rrect;rSize=5;strokeColor=#DFDFDF;html=1;whiteSpace=wrap;fillColor=#ffffff;fontColor=#000000;verticalAlign=bottom;align=left;spacing=20;spacingBottom=50;fontSize=14;" vertex="1" parent="zHDnDTDPrJPbukV9H9nl-133">
          <mxGeometry x="15" y="480" width="200" height="240" as="geometry" />
        </mxCell>
        <mxCell id="zHDnDTDPrJPbukV9H9nl-146" value="Project-1" style="html=1;shadow=0;dashed=0;shape=mxgraph.bootstrap.topButton;rSize=5;perimeter=none;whiteSpace=wrap;fillColor=#868E96;strokeColor=#DFDFDF;fontColor=#DEE2E6;resizeWidth=1;fontSize=18;" vertex="1" parent="zHDnDTDPrJPbukV9H9nl-145">
          <mxGeometry width="200" height="180" relative="1" as="geometry" />
        </mxCell>
        <mxCell id="zHDnDTDPrJPbukV9H9nl-147" value="Go to Docs" style="html=1;shadow=0;dashed=0;shape=mxgraph.bootstrap.rrect;rSize=5;perimeter=none;whiteSpace=wrap;fillColor=#0085FC;strokeColor=none;fontColor=#ffffff;resizeWidth=1;fontSize=14;" vertex="1" parent="zHDnDTDPrJPbukV9H9nl-145">
          <mxGeometry y="1" width="95.99999999999999" height="40" relative="1" as="geometry">
            <mxPoint x="20" y="-60" as="offset" />
          </mxGeometry>
        </mxCell>
        <mxCell id="zHDnDTDPrJPbukV9H9nl-148" value="&lt;b&gt;&lt;font style=&quot;font-size: 20px&quot;&gt;Card title&lt;/font&gt;&lt;/b&gt;&lt;br style=&quot;font-size: 14px&quot;&gt;&lt;br style=&quot;font-size: 14px&quot;&gt;Some quick example text to build on the card title and make up the bulk of the card&#39;s content." style="html=1;shadow=0;dashed=0;shape=mxgraph.bootstrap.rrect;rSize=5;strokeColor=#DFDFDF;html=1;whiteSpace=wrap;fillColor=#ffffff;fontColor=#000000;verticalAlign=bottom;align=left;spacing=20;spacingBottom=50;fontSize=14;" vertex="1" parent="zHDnDTDPrJPbukV9H9nl-133">
          <mxGeometry x="240" y="480" width="220" height="240" as="geometry" />
        </mxCell>
        <mxCell id="zHDnDTDPrJPbukV9H9nl-149" value="Project-2" style="html=1;shadow=0;dashed=0;shape=mxgraph.bootstrap.topButton;rSize=5;perimeter=none;whiteSpace=wrap;fillColor=#868E96;strokeColor=#DFDFDF;fontColor=#DEE2E6;resizeWidth=1;fontSize=18;" vertex="1" parent="zHDnDTDPrJPbukV9H9nl-148">
          <mxGeometry width="220" height="180" relative="1" as="geometry" />
        </mxCell>
        <mxCell id="zHDnDTDPrJPbukV9H9nl-150" value="Go to Docs" style="html=1;shadow=0;dashed=0;shape=mxgraph.bootstrap.rrect;rSize=5;perimeter=none;whiteSpace=wrap;fillColor=#0085FC;strokeColor=none;fontColor=#ffffff;resizeWidth=1;fontSize=14;" vertex="1" parent="zHDnDTDPrJPbukV9H9nl-148">
          <mxGeometry y="1" width="81.23076923076921" height="40" relative="1" as="geometry">
            <mxPoint x="20" y="-60" as="offset" />
          </mxGeometry>
        </mxCell>
        <mxCell id="zHDnDTDPrJPbukV9H9nl-151" value="&lt;b&gt;&lt;font style=&quot;font-size: 20px&quot;&gt;Card title&lt;/font&gt;&lt;/b&gt;&lt;br style=&quot;font-size: 14px&quot;&gt;&lt;br style=&quot;font-size: 14px&quot;&gt;Some quick example text to build on the card title and make up the bulk of the card&#39;s content." style="html=1;shadow=0;dashed=0;shape=mxgraph.bootstrap.rrect;rSize=5;strokeColor=#DFDFDF;html=1;whiteSpace=wrap;fillColor=#ffffff;fontColor=#000000;verticalAlign=bottom;align=left;spacing=20;spacingBottom=50;fontSize=14;" vertex="1" parent="zHDnDTDPrJPbukV9H9nl-133">
          <mxGeometry x="480" y="480" width="190" height="240" as="geometry" />
        </mxCell>
        <mxCell id="zHDnDTDPrJPbukV9H9nl-152" value="Project-3" style="html=1;shadow=0;dashed=0;shape=mxgraph.bootstrap.topButton;rSize=5;perimeter=none;whiteSpace=wrap;fillColor=#868E96;strokeColor=#DFDFDF;fontColor=#DEE2E6;resizeWidth=1;fontSize=18;" vertex="1" parent="zHDnDTDPrJPbukV9H9nl-151">
          <mxGeometry width="190" height="180" relative="1" as="geometry" />
        </mxCell>
        <mxCell id="zHDnDTDPrJPbukV9H9nl-153" value="Go to Docs" style="html=1;shadow=0;dashed=0;shape=mxgraph.bootstrap.rrect;rSize=5;perimeter=none;whiteSpace=wrap;fillColor=#0085FC;strokeColor=none;fontColor=#ffffff;resizeWidth=1;fontSize=14;" vertex="1" parent="zHDnDTDPrJPbukV9H9nl-151">
          <mxGeometry y="1" width="91.2" height="40" relative="1" as="geometry">
            <mxPoint x="20" y="-60" as="offset" />
          </mxGeometry>
        </mxCell>
        <mxCell id="zHDnDTDPrJPbukV9H9nl-171" value="" style="edgeStyle=orthogonalEdgeStyle;rounded=0;orthogonalLoop=1;jettySize=auto;html=1;" edge="1" parent="zHDnDTDPrJPbukV9H9nl-133" source="zHDnDTDPrJPbukV9H9nl-154" target="zHDnDTDPrJPbukV9H9nl-170">
          <mxGeometry relative="1" as="geometry" />
        </mxCell>
        <mxCell id="zHDnDTDPrJPbukV9H9nl-154" value="&lt;font color=&quot;#596780&quot;&gt;&lt;b&gt;Project 1&lt;/b&gt;&lt;/font&gt;&lt;div&gt;&lt;div&gt;&lt;/div&gt;&lt;/div&gt;&lt;div&gt;&lt;font color=&quot;#596780&quot;&gt;&lt;b&gt;Project 2&lt;/b&gt;&lt;/font&gt;&lt;/div&gt;&lt;div&gt;&lt;font color=&quot;#596780&quot;&gt;&lt;b&gt;Project 3&lt;/b&gt;&lt;/font&gt;&lt;/div&gt;&lt;div&gt;&lt;font color=&quot;#596780&quot;&gt;&lt;b&gt;&lt;br&gt;&lt;/b&gt;&lt;/font&gt;&lt;/div&gt;" style="html=1;rounded=1;fillColor=#ffffff;strokeColor=#DFE1E5;fontSize=12;align=left;fontColor=#000000;shadow=1;arcSize=1;whiteSpace=wrap;spacing=2;verticalAlign=top;fontStyle=0;spacingLeft=20;spacingTop=15;sketch=1;hachureGap=4;pointerEvents=0;fontFamily=Architects Daughter;fontSource=https%3A%2F%2Ffonts.googleapis.com%2Fcss%3Ffamily%3DArchitects%2BDaughter;" vertex="1" parent="zHDnDTDPrJPbukV9H9nl-133">
          <mxGeometry x="19.99769230769232" y="210" width="287.6923076923077" height="70" as="geometry" />
        </mxCell>
        <mxCell id="zHDnDTDPrJPbukV9H9nl-155" value="" style="rounded=0;fillColor=#000000;strokeColor=none;html=1;opacity=10;resizeWidth=1;sketch=1;hachureGap=4;pointerEvents=0;fontFamily=Architects Daughter;fontSource=https%3A%2F%2Ffonts.googleapis.com%2Fcss%3Ffamily%3DArchitects%2BDaughter;fontSize=20;" vertex="1" parent="zHDnDTDPrJPbukV9H9nl-154">
          <mxGeometry width="287.69" height="20" relative="1" as="geometry">
            <mxPoint y="20" as="offset" />
          </mxGeometry>
        </mxCell>
        <mxCell id="zHDnDTDPrJPbukV9H9nl-156" value="Project 2" style="rounded=1;arcSize=9;fillColor=#ffffff;strokeColor=#4C9AFF;html=1;strokeWidth=2;spacingLeft=5;fontColor=#000000;align=left;sketch=1;hachureGap=4;pointerEvents=0;fontFamily=Architects Daughter;fontSource=https%3A%2F%2Ffonts.googleapis.com%2Fcss%3Ffamily%3DArchitects%2BDaughter;fontSize=20;" vertex="1" parent="zHDnDTDPrJPbukV9H9nl-133">
          <mxGeometry x="20" y="180" width="340" height="33" as="geometry" />
        </mxCell>
        <mxCell id="zHDnDTDPrJPbukV9H9nl-157" value="" style="html=1;shadow=0;dashed=0;shape=mxgraph.atlassian.close;fillColor=#97A0AF;strokeColor=none;sketch=0;hachureGap=4;pointerEvents=0;fontFamily=Architects Daughter;fontSource=https%3A%2F%2Ffonts.googleapis.com%2Fcss%3Ffamily%3DArchitects%2BDaughter;fontSize=20;" vertex="1" parent="zHDnDTDPrJPbukV9H9nl-156">
          <mxGeometry x="1" y="0.5" width="14" height="14" relative="1" as="geometry">
            <mxPoint x="-28" y="-7" as="offset" />
          </mxGeometry>
        </mxCell>
        <mxCell id="zHDnDTDPrJPbukV9H9nl-158" value="Select Project to modify it&#39;s status" style="html=1;fillColor=none;strokeColor=none;fontSize=11;align=left;fontColor=#596780;whiteSpace=wrap;sketch=1;hachureGap=4;pointerEvents=0;fontFamily=Architects Daughter;fontSource=https%3A%2F%2Ffonts.googleapis.com%2Fcss%3Ffamily%3DArchitects%2BDaughter;" vertex="1" parent="zHDnDTDPrJPbukV9H9nl-133">
          <mxGeometry x="20" y="160" width="200" height="20" as="geometry" />
        </mxCell>
        <mxCell id="zHDnDTDPrJPbukV9H9nl-168" value="Modify" style="labelPosition=center;verticalLabelPosition=middle;align=center;html=1;shape=mxgraph.basic.button;dx=10;whiteSpace=wrap;" vertex="1" parent="zHDnDTDPrJPbukV9H9nl-133">
          <mxGeometry x="30" y="410" width="100" height="60" as="geometry" />
        </mxCell>
        <mxCell id="zHDnDTDPrJPbukV9H9nl-169" value="&lt;font color=&quot;#596780&quot;&gt;&lt;b&gt;Complete&lt;/b&gt;&lt;/font&gt;&lt;div&gt;&lt;font color=&quot;#596780&quot;&gt;&lt;b&gt;in progress&lt;/b&gt;&lt;/font&gt;&lt;/div&gt;&lt;div&gt;&lt;font color=&quot;#596780&quot;&gt;&lt;b&gt;incomplete&lt;/b&gt;&lt;/font&gt;&lt;/div&gt;" style="html=1;rounded=1;fillColor=#ffffff;strokeColor=#DFE1E5;fontSize=12;align=left;fontColor=#000000;shadow=1;arcSize=1;whiteSpace=wrap;spacing=2;verticalAlign=top;fontStyle=0;spacingLeft=20;spacingTop=15;sketch=1;hachureGap=4;pointerEvents=0;fontFamily=Architects Daughter;fontSource=https%3A%2F%2Ffonts.googleapis.com%2Fcss%3Ffamily%3DArchitects%2BDaughter;" vertex="1" parent="zHDnDTDPrJPbukV9H9nl-133">
          <mxGeometry x="29.997692307692432" y="320" width="287.6923076923077" height="70" as="geometry" />
        </mxCell>
        <mxCell id="zHDnDTDPrJPbukV9H9nl-170" value="" style="rounded=0;fillColor=#000000;strokeColor=none;html=1;opacity=10;resizeWidth=1;sketch=1;hachureGap=4;pointerEvents=0;fontFamily=Architects Daughter;fontSource=https%3A%2F%2Ffonts.googleapis.com%2Fcss%3Ffamily%3DArchitects%2BDaughter;fontSize=20;" vertex="1" parent="zHDnDTDPrJPbukV9H9nl-169">
          <mxGeometry width="287.69" height="20" relative="1" as="geometry">
            <mxPoint x="-10" y="20" as="offset" />
          </mxGeometry>
        </mxCell>
        <mxCell id="zHDnDTDPrJPbukV9H9nl-172" value="" style="strokeWidth=1;shadow=0;dashed=0;align=center;html=1;shape=mxgraph.mockup.containers.browserWindow;rSize=0;strokeColor=#666666;strokeColor2=#008cff;strokeColor3=#c4c4c4;mainText=,;recursiveResize=0;" vertex="1" parent="1">
          <mxGeometry x="1670" y="1630" width="680" height="730" as="geometry" />
        </mxCell>
        <mxCell id="zHDnDTDPrJPbukV9H9nl-173" value="Home" style="strokeWidth=1;shadow=0;dashed=0;align=center;html=1;shape=mxgraph.mockup.containers.anchor;fontSize=17;fontColor=#666666;align=left;whiteSpace=wrap;" vertex="1" parent="zHDnDTDPrJPbukV9H9nl-172">
          <mxGeometry x="60" y="12" width="110" height="26" as="geometry" />
        </mxCell>
        <mxCell id="zHDnDTDPrJPbukV9H9nl-174" value="https://www.ProjectHub.com/Home" style="strokeWidth=1;shadow=0;dashed=0;align=center;html=1;shape=mxgraph.mockup.containers.anchor;rSize=0;fontSize=17;fontColor=#666666;align=left;" vertex="1" parent="zHDnDTDPrJPbukV9H9nl-172">
          <mxGeometry x="130" y="60" width="250" height="26" as="geometry" />
        </mxCell>
        <mxCell id="zHDnDTDPrJPbukV9H9nl-175" value="" style="html=1;shadow=0;dashed=0;fillColor=#343A40;strokeColor=none;fontSize=16;fontColor=#ffffff;align=left;spacing=15;" vertex="1" parent="zHDnDTDPrJPbukV9H9nl-172">
          <mxGeometry y="100" width="680" height="40" as="geometry" />
        </mxCell>
        <mxCell id="zHDnDTDPrJPbukV9H9nl-176" value="" style="swimlane;shape=mxgraph.bootstrap.anchor;strokeColor=none;fillColor=none;fontColor=#0085FC;fontStyle=0;childLayout=stackLayout;horizontal=0;startSize=0;horizontalStack=1;resizeParent=1;resizeParentMax=0;resizeLast=0;collapsible=0;marginBottom=0;whiteSpace=wrap;html=1;resizeWidth=0;" vertex="1" parent="zHDnDTDPrJPbukV9H9nl-175">
          <mxGeometry y="6.67" width="270" height="20" as="geometry" />
        </mxCell>
        <mxCell id="zHDnDTDPrJPbukV9H9nl-177" value="Home(Visitor)" style="text;strokeColor=none;align=left;verticalAlign=middle;spacingLeft=15;spacingRight=10;points=[[0,0.5],[1,0.5]];portConstraint=eastwest;rotatable=0;whiteSpace=wrap;html=1;fillColor=none;fontColor=#ffffff;fontSize=16;" vertex="1" parent="zHDnDTDPrJPbukV9H9nl-176">
          <mxGeometry width="130" height="20" as="geometry" />
        </mxCell>
        <mxCell id="zHDnDTDPrJPbukV9H9nl-178" value="Projects" style="text;strokeColor=none;align=center;verticalAlign=middle;spacingLeft=10;spacingRight=10;points=[[0,0.5],[1,0.5]];portConstraint=eastwest;rotatable=0;whiteSpace=wrap;html=1;fillColor=none;fontColor=#9A9DA0;fontSize=14;" vertex="1" parent="zHDnDTDPrJPbukV9H9nl-176">
          <mxGeometry x="130" width="80" height="20" as="geometry" />
        </mxCell>
        <mxCell id="zHDnDTDPrJPbukV9H9nl-179" value="About" style="text;strokeColor=none;align=center;verticalAlign=middle;spacingLeft=10;spacingRight=10;points=[[0,0.5],[1,0.5]];portConstraint=eastwest;rotatable=0;whiteSpace=wrap;html=1;fillColor=none;fontColor=#9A9DA0;fontSize=14;" vertex="1" parent="zHDnDTDPrJPbukV9H9nl-176">
          <mxGeometry x="210" width="60" height="20" as="geometry" />
        </mxCell>
        <mxCell id="zHDnDTDPrJPbukV9H9nl-180" value="Search" style="html=1;shadow=0;dashed=0;shape=mxgraph.bootstrap.rrect;rSize=5;fontSize=14;fontColor=#6C767D;strokeColor=#CED4DA;fillColor=#ffffff;align=left;spacing=10;" vertex="1" parent="zHDnDTDPrJPbukV9H9nl-175">
          <mxGeometry x="1" width="111" height="20" relative="1" as="geometry">
            <mxPoint x="-271" y="10" as="offset" />
          </mxGeometry>
        </mxCell>
        <mxCell id="zHDnDTDPrJPbukV9H9nl-181" value="Login" style="text;strokeColor=none;align=center;verticalAlign=middle;spacingLeft=10;spacingRight=10;points=[[0,0.5],[1,0.5]];portConstraint=eastwest;rotatable=0;whiteSpace=wrap;html=1;fillColor=none;fontColor=#9A9DA0;fontSize=14;" vertex="1" parent="zHDnDTDPrJPbukV9H9nl-175">
          <mxGeometry x="610" y="9.996666666666657" width="60" height="20" as="geometry" />
        </mxCell>
        <mxCell id="zHDnDTDPrJPbukV9H9nl-182" value="Search" style="html=1;shadow=0;dashed=0;shape=mxgraph.bootstrap.rrect;rSize=5;fontSize=14;fontColor=#1CA5B8;strokeColor=#1CA5B8;fillColor=none;" vertex="1" parent="zHDnDTDPrJPbukV9H9nl-175">
          <mxGeometry x="1" width="70" height="20" relative="1" as="geometry">
            <mxPoint x="-150" y="10" as="offset" />
          </mxGeometry>
        </mxCell>
        <mxCell id="zHDnDTDPrJPbukV9H9nl-183" value="&lt;b&gt;&lt;font style=&quot;font-size: 20px&quot;&gt;Card title&lt;/font&gt;&lt;/b&gt;&lt;br style=&quot;font-size: 14px&quot;&gt;&lt;br style=&quot;font-size: 14px&quot;&gt;Some quick example text to build on the card title and make up the bulk of the card&#39;s content." style="html=1;shadow=0;dashed=0;shape=mxgraph.bootstrap.rrect;rSize=5;strokeColor=#DFDFDF;html=1;whiteSpace=wrap;fillColor=#ffffff;fontColor=#000000;verticalAlign=bottom;align=left;spacing=20;spacingBottom=50;fontSize=14;" vertex="1" parent="zHDnDTDPrJPbukV9H9nl-172">
          <mxGeometry x="15" y="480" width="200" height="240" as="geometry" />
        </mxCell>
        <mxCell id="zHDnDTDPrJPbukV9H9nl-184" value="Project-1" style="html=1;shadow=0;dashed=0;shape=mxgraph.bootstrap.topButton;rSize=5;perimeter=none;whiteSpace=wrap;fillColor=#868E96;strokeColor=#DFDFDF;fontColor=#DEE2E6;resizeWidth=1;fontSize=18;" vertex="1" parent="zHDnDTDPrJPbukV9H9nl-183">
          <mxGeometry width="200" height="180" relative="1" as="geometry" />
        </mxCell>
        <mxCell id="zHDnDTDPrJPbukV9H9nl-185" value="Go to Docs" style="html=1;shadow=0;dashed=0;shape=mxgraph.bootstrap.rrect;rSize=5;perimeter=none;whiteSpace=wrap;fillColor=#0085FC;strokeColor=none;fontColor=#ffffff;resizeWidth=1;fontSize=14;" vertex="1" parent="zHDnDTDPrJPbukV9H9nl-183">
          <mxGeometry y="1" width="95.99999999999999" height="40" relative="1" as="geometry">
            <mxPoint x="20" y="-60" as="offset" />
          </mxGeometry>
        </mxCell>
        <mxCell id="zHDnDTDPrJPbukV9H9nl-186" value="&lt;b&gt;&lt;font style=&quot;font-size: 20px&quot;&gt;Card title&lt;/font&gt;&lt;/b&gt;&lt;br style=&quot;font-size: 14px&quot;&gt;&lt;br style=&quot;font-size: 14px&quot;&gt;Some quick example text to build on the card title and make up the bulk of the card&#39;s content." style="html=1;shadow=0;dashed=0;shape=mxgraph.bootstrap.rrect;rSize=5;strokeColor=#DFDFDF;html=1;whiteSpace=wrap;fillColor=#ffffff;fontColor=#000000;verticalAlign=bottom;align=left;spacing=20;spacingBottom=50;fontSize=14;" vertex="1" parent="zHDnDTDPrJPbukV9H9nl-172">
          <mxGeometry x="240" y="480" width="220" height="240" as="geometry" />
        </mxCell>
        <mxCell id="zHDnDTDPrJPbukV9H9nl-187" value="Project-2" style="html=1;shadow=0;dashed=0;shape=mxgraph.bootstrap.topButton;rSize=5;perimeter=none;whiteSpace=wrap;fillColor=#868E96;strokeColor=#DFDFDF;fontColor=#DEE2E6;resizeWidth=1;fontSize=18;" vertex="1" parent="zHDnDTDPrJPbukV9H9nl-186">
          <mxGeometry width="220" height="180" relative="1" as="geometry" />
        </mxCell>
        <mxCell id="zHDnDTDPrJPbukV9H9nl-188" value="Go to Docs" style="html=1;shadow=0;dashed=0;shape=mxgraph.bootstrap.rrect;rSize=5;perimeter=none;whiteSpace=wrap;fillColor=#0085FC;strokeColor=none;fontColor=#ffffff;resizeWidth=1;fontSize=14;" vertex="1" parent="zHDnDTDPrJPbukV9H9nl-186">
          <mxGeometry y="1" width="81.23076923076921" height="40" relative="1" as="geometry">
            <mxPoint x="20" y="-60" as="offset" />
          </mxGeometry>
        </mxCell>
        <mxCell id="zHDnDTDPrJPbukV9H9nl-189" value="&lt;b&gt;&lt;font style=&quot;font-size: 20px&quot;&gt;Card title&lt;/font&gt;&lt;/b&gt;&lt;br style=&quot;font-size: 14px&quot;&gt;&lt;br style=&quot;font-size: 14px&quot;&gt;Some quick example text to build on the card title and make up the bulk of the card&#39;s content." style="html=1;shadow=0;dashed=0;shape=mxgraph.bootstrap.rrect;rSize=5;strokeColor=#DFDFDF;html=1;whiteSpace=wrap;fillColor=#ffffff;fontColor=#000000;verticalAlign=bottom;align=left;spacing=20;spacingBottom=50;fontSize=14;" vertex="1" parent="zHDnDTDPrJPbukV9H9nl-172">
          <mxGeometry x="480" y="480" width="190" height="240" as="geometry" />
        </mxCell>
        <mxCell id="zHDnDTDPrJPbukV9H9nl-190" value="Project-3" style="html=1;shadow=0;dashed=0;shape=mxgraph.bootstrap.topButton;rSize=5;perimeter=none;whiteSpace=wrap;fillColor=#868E96;strokeColor=#DFDFDF;fontColor=#DEE2E6;resizeWidth=1;fontSize=18;" vertex="1" parent="zHDnDTDPrJPbukV9H9nl-189">
          <mxGeometry width="190" height="180" relative="1" as="geometry" />
        </mxCell>
        <mxCell id="zHDnDTDPrJPbukV9H9nl-191" value="Go to Docs" style="html=1;shadow=0;dashed=0;shape=mxgraph.bootstrap.rrect;rSize=5;perimeter=none;whiteSpace=wrap;fillColor=#0085FC;strokeColor=none;fontColor=#ffffff;resizeWidth=1;fontSize=14;" vertex="1" parent="zHDnDTDPrJPbukV9H9nl-189">
          <mxGeometry y="1" width="91.2" height="40" relative="1" as="geometry">
            <mxPoint x="20" y="-60" as="offset" />
          </mxGeometry>
        </mxCell>
        <mxCell id="zHDnDTDPrJPbukV9H9nl-193" value="&lt;font color=&quot;#596780&quot;&gt;&lt;b&gt;Project 1&lt;/b&gt;&lt;/font&gt;&lt;div&gt;&lt;div&gt;&lt;/div&gt;&lt;/div&gt;&lt;div&gt;&lt;font color=&quot;#596780&quot;&gt;&lt;b&gt;Project 2&lt;/b&gt;&lt;/font&gt;&lt;/div&gt;&lt;div&gt;&lt;font color=&quot;#596780&quot;&gt;&lt;b&gt;Project 3&lt;/b&gt;&lt;/font&gt;&lt;/div&gt;&lt;div&gt;&lt;font color=&quot;#596780&quot;&gt;&lt;b&gt;&lt;br&gt;&lt;/b&gt;&lt;/font&gt;&lt;/div&gt;" style="html=1;rounded=1;fillColor=#ffffff;strokeColor=#DFE1E5;fontSize=12;align=left;fontColor=#000000;shadow=1;arcSize=1;whiteSpace=wrap;spacing=2;verticalAlign=top;fontStyle=0;spacingLeft=20;spacingTop=15;sketch=1;hachureGap=4;pointerEvents=0;fontFamily=Architects Daughter;fontSource=https%3A%2F%2Ffonts.googleapis.com%2Fcss%3Ffamily%3DArchitects%2BDaughter;" vertex="1" parent="zHDnDTDPrJPbukV9H9nl-172">
          <mxGeometry x="19.99769230769232" y="210" width="287.6923076923077" height="70" as="geometry" />
        </mxCell>
        <mxCell id="zHDnDTDPrJPbukV9H9nl-194" value="" style="rounded=0;fillColor=#000000;strokeColor=none;html=1;opacity=10;resizeWidth=1;sketch=1;hachureGap=4;pointerEvents=0;fontFamily=Architects Daughter;fontSource=https%3A%2F%2Ffonts.googleapis.com%2Fcss%3Ffamily%3DArchitects%2BDaughter;fontSize=20;" vertex="1" parent="zHDnDTDPrJPbukV9H9nl-193">
          <mxGeometry width="287.69" height="20" relative="1" as="geometry">
            <mxPoint y="20" as="offset" />
          </mxGeometry>
        </mxCell>
        <mxCell id="zHDnDTDPrJPbukV9H9nl-195" value="Project 2" style="rounded=1;arcSize=9;fillColor=#ffffff;strokeColor=#4C9AFF;html=1;strokeWidth=2;spacingLeft=5;fontColor=#000000;align=left;sketch=1;hachureGap=4;pointerEvents=0;fontFamily=Architects Daughter;fontSource=https%3A%2F%2Ffonts.googleapis.com%2Fcss%3Ffamily%3DArchitects%2BDaughter;fontSize=20;" vertex="1" parent="zHDnDTDPrJPbukV9H9nl-172">
          <mxGeometry x="20" y="180" width="340" height="33" as="geometry" />
        </mxCell>
        <mxCell id="zHDnDTDPrJPbukV9H9nl-196" value="" style="html=1;shadow=0;dashed=0;shape=mxgraph.atlassian.close;fillColor=#97A0AF;strokeColor=none;sketch=0;hachureGap=4;pointerEvents=0;fontFamily=Architects Daughter;fontSource=https%3A%2F%2Ffonts.googleapis.com%2Fcss%3Ffamily%3DArchitects%2BDaughter;fontSize=20;" vertex="1" parent="zHDnDTDPrJPbukV9H9nl-195">
          <mxGeometry x="1" y="0.5" width="14" height="14" relative="1" as="geometry">
            <mxPoint x="-28" y="-7" as="offset" />
          </mxGeometry>
        </mxCell>
        <mxCell id="zHDnDTDPrJPbukV9H9nl-197" value="Select Project to modify it&#39;s status" style="html=1;fillColor=none;strokeColor=none;fontSize=11;align=left;fontColor=#596780;whiteSpace=wrap;sketch=1;hachureGap=4;pointerEvents=0;fontFamily=Architects Daughter;fontSource=https%3A%2F%2Ffonts.googleapis.com%2Fcss%3Ffamily%3DArchitects%2BDaughter;" vertex="1" parent="zHDnDTDPrJPbukV9H9nl-172">
          <mxGeometry x="20" y="160" width="200" height="20" as="geometry" />
        </mxCell>
        <mxCell id="zHDnDTDPrJPbukV9H9nl-205" value="Year" style="strokeWidth=1;shadow=0;dashed=0;align=center;html=1;shape=mxgraph.mockup.forms.searchBox;strokeColor=#999999;mainText=;strokeColor2=#008cff;fontColor=#666666;fontSize=17;align=left;spacingLeft=3;whiteSpace=wrap;" vertex="1" parent="zHDnDTDPrJPbukV9H9nl-172">
          <mxGeometry x="530" y="180" width="150" height="30" as="geometry" />
        </mxCell>
        <mxCell id="zHDnDTDPrJPbukV9H9nl-201" value="Major" style="strokeWidth=1;shadow=0;dashed=0;align=center;html=1;shape=mxgraph.mockup.forms.searchBox;strokeColor=#999999;mainText=;strokeColor2=#008cff;fontColor=#666666;fontSize=17;align=left;spacingLeft=3;whiteSpace=wrap;" vertex="1" parent="zHDnDTDPrJPbukV9H9nl-172">
          <mxGeometry x="372.5" y="180" width="150" height="30" as="geometry" />
        </mxCell>
        <mxCell id="zHDnDTDPrJPbukV9H9nl-206" value="Filter" style="text;html=1;align=center;verticalAlign=middle;whiteSpace=wrap;rounded=0;" vertex="1" parent="zHDnDTDPrJPbukV9H9nl-172">
          <mxGeometry x="372.5" y="150" width="60" height="30" as="geometry" />
        </mxCell>
      </root>
    </mxGraphModel>
  </diagram>
</mxfile>
